<svg xmlns="http://www.w3.org/2000/svg" width="28" height="28" fill="none" viewBox="0 0 28 28">
    <path fill="#666" fill-rule="evenodd" d="M14 28C6.268 28 0 21.732 0 14S6.268 0 14 0s14 6.268 14 14-6.268 14-14 14zm0-26C7.373 2 2 7.373 2 14s5.373 12 12 12 12-5.373 12-12S20.627 2 14 2z" clip-rule="evenodd"/>
    <path fill="#666" d="M9.463 17.79c.323-.764 1.074-1.299 1.949-1.299 1.008 0 1.85.71 2.065 1.662h5.975l-1.079-1.089c-.184-.185-.184-.485 0-.67.184-.186.482-.186.666 0l1.882 1.898c.184.185.184.485 0 .67l-1.882 1.899c-.184.185-.482.185-.666 0-.184-.185-.184-.486 0-.671l1.08-1.088h-5.976c-.214.95-1.057 1.66-2.065 1.66-1.13 0-2.053-.891-2.115-2.015C7.335 17.977 6 16.06 6 13.881c0-2.178 1.335-4.095 3.297-4.865C9.36 7.892 10.282 7 11.412 7c1.008 0 1.85.71 2.065 1.661h4.34C18.031 7.71 18.875 7 19.882 7 21.052 7 22 7.956 22 9.136c0 1.179-.948 2.135-2.118 2.135-1.008 0-1.85-.71-2.065-1.66h-4.34c-.214.95-1.057 1.66-2.065 1.66-.265 0-.519-.049-.755-.14-.239-.091-.456-.225-.644-.392-.235-.209-.425-.47-.55-.765-1.508.672-2.522 2.19-2.522 3.907s1.014 3.235 2.522 3.908zm1.949 2.024c.65 0 1.176-.532 1.176-1.187s-.526-1.186-1.176-1.186c-.65 0-1.177.53-1.177 1.186 0 .655.527 1.187 1.177 1.187z"/>
    <path fill="#666" fill-rule="evenodd" d="M9.062 8.842c.144-1.178 1.14-2.092 2.35-2.092 1.058 0 1.952.699 2.256 1.661h3.958c.304-.962 1.198-1.661 2.256-1.661 1.31 0 2.368 1.07 2.368 2.386 0 1.315-1.058 2.385-2.368 2.385-1.058 0-1.952-.699-2.256-1.66h-3.958c-.304.961-1.198 1.66-2.256 1.66-.296 0-.58-.055-.845-.156-.267-.103-.51-.253-.72-.44m-.785-2.083c-1.979.843-3.312 2.811-3.312 5.04 0 2.227 1.333 4.196 3.312 5.039.144 1.177 1.14 2.092 2.35 2.092 1.058 0 1.952-.7 2.256-1.661h5.184l-.656.662c-.28.283-.28.74 0 1.023.281.284.739.284 1.02 0l1.883-1.898c.28-.283.28-.74 0-1.023l-1.883-1.899c-.281-.284-.739-.284-1.02 0-.28.283-.28.74 0 1.023l.656.663h-5.184c-.304-.963-1.198-1.662-2.256-1.662-.887 0-1.658.491-2.063 1.215-1.3-.676-2.158-2.041-2.158-3.575 0-1.533.859-2.898 2.157-3.574.131.234.3.443.499.619m.138-1.79c0-.792.637-1.437 1.427-1.437s1.426.645 1.426 1.437c0 .79-.636 1.436-1.426 1.436-.79 0-1.427-.645-1.427-1.436zm1.427-.937c-.51 0-.927.417-.927.937 0 .519.417.936.927.936s.926-.417.926-.936c0-.52-.416-.937-.926-.937zm7.044.937c0-.792.637-1.437 1.426-1.437.79 0 1.427.645 1.427 1.437 0 .79-.637 1.436-1.427 1.436s-1.426-.645-1.426-1.436zm1.426-.937c-.51 0-.926.417-.926.937 0 .519.417.936.926.936.51 0 .927-.417.927-.936 0-.52-.417-.937-.927-.937z" clip-rule="evenodd"/>
</svg>
