<svg xmlns="http://www.w3.org/2000/svg" width="28" height="28" fill="none" viewBox="0 0 28 28">
    <rect width="26" height="26" x="1" y="1" fill="#EFEFEF" stroke="#666" stroke-width="2" rx="13"/>
    <path stroke="#666" stroke-miterlimit="10" stroke-width="1.6" d="M7.534 16.08c-.059-.356-.092-.722-.092-1.095 0-2.819 1.778-5.22 4.274-6.149M18.181 20.036c-1.135.94-2.592 1.505-4.181 1.505-1.59 0-3.046-.564-4.181-1.505M16.285 8.835c2.496.929 4.273 3.33 4.273 6.149 0 .372-.03.738-.092 1.094"/>
    <path stroke="#666" stroke-miterlimit="10" stroke-width="1.6" d="M16.322 8.428c0 .139-.012.276-.035.409-.192 1.086-1.143 1.912-2.285 1.912-1.141 0-2.092-.824-2.285-1.912-.022-.133-.034-.27-.034-.41 0-1.282 1.039-2.321 2.321-2.321 1.283 0 2.318 1.04 2.318 2.322zM21.69 19.422c-.641 1.11-2.06 1.491-3.171.849-.121-.07-.234-.15-.338-.237-.843-.712-1.082-1.946-.511-2.934.57-.99 1.759-1.399 2.798-1.022.127.047.252.104.372.174 1.109.642 1.49 2.061.85 3.17zM9.819 20.036c-.102.088-.217.166-.338.237-1.11.64-2.53.26-3.17-.849-.64-1.108-.26-2.528.849-3.17.12-.07.245-.127.372-.174 1.037-.377 2.226.035 2.798 1.023.571.988.332 2.221-.511 2.933z"/>
</svg>
