<svg xmlns="http://www.w3.org/2000/svg" width="28" height="28" fill="none" viewBox="0 0 28 28">
    <path fill="#666" fill-rule="evenodd" d="M14 28C6.268 28 0 21.732 0 14S6.268 0 14 0s14 6.268 14 14-6.268 14-14 14zm0-26C7.373 2 2 7.373 2 14s5.373 12 12 12 12-5.373 12-12S20.627 2 14 2z" clip-rule="evenodd"/>
    <path fill="#666" fill-rule="evenodd" d="M7 11c-.552 0-1-.448-1-1s.448-1 1-1h14c.552 0 1 .448 1 1s-.448 1-1 1H7zM7 15c-.552 0-1-.448-1-1s.448-1 1-1h10c.552 0 1 .448 1 1s-.448 1-1 1H7zM7 19c-.552 0-1-.448-1-1s.448-1 1-1h10c.552 0 1 .448 1 1s-.448 1-1 1H7z" clip-rule="evenodd"/>
</svg>
