<svg xmlns="http://www.w3.org/2000/svg" width="28" height="28" fill="none" viewBox="0 0 28 28">
    <path fill="#C58B10" fill-rule="evenodd" d="M14 28C6.268 28 0 21.732 0 14S6.268 0 14 0s14 6.268 14 14-6.268 14-14 14zm0-26C7.373 2 2 7.373 2 14s5.373 12 12 12 12-5.373 12-12S20.627 2 14 2z" clip-rule="evenodd"/>
    <path fill="#C58B10" fill-rule="evenodd" d="M7.125 8c0-.966.784-1.75 1.75-1.75h10.25c.966 0 1.75.784 1.75 1.75v12c0 .966-.784 1.75-1.75 1.75H8.875c-.966 0-1.75-.784-1.75-1.75V8zm1.75-.25c-.138 0-.25.112-.25.25v12c0 .138.112.25.25.25h10.25c.138 0 .25-.112.25-.25V8c0-.138-.112-.25-.25-.25H8.875z" clip-rule="evenodd"/>
    <path fill="#C58B10" d="M9.917 11.2c0 .258.209.466.466.466h7.234c.257 0 .466-.208.466-.466s-.209-.467-.466-.467h-7.234c-.257 0-.466.21-.466.467zM9.917 16.8c0 .258.209.467.466.467h7.234c.257 0 .466-.21.466-.467 0-.258-.209-.467-.466-.467h-7.234c-.257 0-.466.21-.466.467zM9.917 14c0 .258.209.467.466.467h7.234c.257 0 .466-.21.466-.467 0-.258-.209-.466-.466-.466h-7.234c-.257 0-.466.208-.466.466z"/>
</svg>
