<svg xmlns="http://www.w3.org/2000/svg" width="28" height="28" fill="none" viewBox="0 0 28 28">
    <path fill="#C58B10" fill-rule="evenodd" d="M14 28C6.268 28 0 21.732 0 14S6.268 0 14 0s14 6.268 14 14-6.268 14-14 14zm0-26C7.373 2 2 7.373 2 14s5.373 12 12 12 12-5.373 12-12S20.627 2 14 2z" clip-rule="evenodd"/>
    <path fill="#C58B10" d="M7 20.222C7 16.786 9.786 14 13.222 14h1.556C18.214 14 21 16.786 21 20.222c0 .982-.796 1.778-1.778 1.778H8.778C7.796 22 7 21.204 7 20.222zM11 9c0-1.657 1.343-3 3-3s3 1.343 3 3-1.343 3-3 3-3-1.343-3-3z"/>
</svg>
