<svg xmlns="http://www.w3.org/2000/svg" width="28" height="28" fill="none" viewBox="0 0 28 28">
    <path fill="#C58B10" fill-rule="evenodd" d="M14 28C6.268 28 0 21.732 0 14S6.268 0 14 0s14 6.268 14 14-6.268 14-14 14zm0-26C7.373 2 2 7.373 2 14s5.373 12 12 12 12-5.373 12-12S20.627 2 14 2z" clip-rule="evenodd"/>
    <path fill="#C58B10" fill-rule="evenodd" d="M12.483 8.428c0-.84.68-1.522 1.521-1.522.84 0 1.518.68 1.518 1.522 0 .09-.008.182-.023.272-.127.71-.75 1.25-1.497 1.25-.746 0-1.37-.54-1.496-1.25-.015-.09-.023-.181-.023-.272zM11.26 9.92c-1.798.975-3.018 2.878-3.018 5.065l.002.158c1.104-.026 2.186.537 2.779 1.558v.002c.592 1.024.536 2.243-.039 3.187.877.54 1.909.851 3.016.851s2.14-.311 3.017-.852c-.575-.944-.632-2.163-.04-3.188.591-1.026 1.675-1.587 2.78-1.56l.001-.157c0-2.186-1.217-4.088-3.014-5.064-.53.97-1.559 1.63-2.742 1.63-1.182 0-2.213-.658-2.742-1.63zM9.788 21.018c1.194.834 2.646 1.323 4.212 1.323 1.566 0 3.02-.49 4.213-1.325 1.479.79 3.326.268 4.17-1.194.843-1.462.368-3.322-1.051-4.208.017-.209.026-.419.026-.63 0-2.95-1.735-5.492-4.238-6.666-.057-1.672-1.426-3.012-3.116-3.012-1.687 0-3.061 1.338-3.12 3.012-2.505 1.173-4.242 3.715-4.242 6.667 0 .213.01.423.028.63-1.421.887-1.896 2.748-1.052 4.21.844 1.46 2.692 1.98 4.17 1.193zm10.405-4.19c-.68-.244-1.457.026-1.83.672-.373.647-.218 1.456.334 1.922.07.06.144.111.221.156h.001c.728.422 1.658.172 2.077-.555v-.001c.419-.725.17-1.656-.556-2.078-.077-.044-.16-.082-.247-.115zm-12.633.119c.078-.045.16-.083.248-.116.676-.244 1.454.025 1.83.672.373.646.217 1.455-.335 1.922l-.006.005c-.055.047-.127.098-.22.153-.727.416-1.655.166-2.073-.559-.42-.725-.171-1.656.556-2.077z" clip-rule="evenodd"/>
</svg>
