<svg xmlns="http://www.w3.org/2000/svg" width="24" height="24" fill="none" viewBox="0 0 24 24">
    <path fill="#495057" fill-rule="evenodd" d="M19.5 21s1.5 0 1.5-1.5-1.5-6-9-6-9 4.5-9 6S4.5 21 4.5 21h15zM4.508 19.584v-.003.003zm.025-.084h14.934l.021-.003.012-.003c-.002-.369-.231-1.479-1.248-2.496C17.274 16.02 15.434 15 12 15c-3.435 0-5.274 1.02-6.252 1.998-1.017 1.017-1.245 2.127-1.248 2.496l.033.006zm14.961.084v-.003.003zM12 10.5c.796 0 1.559-.316 2.121-.879C14.684 9.06 15 8.296 15 7.5s-.316-1.559-.879-2.121C13.56 4.816 12.796 4.5 12 4.5s-1.559.316-2.121.879C9.316 5.94 9 6.704 9 7.5s.316 1.559.879 2.121c.562.563 1.325.879 2.121.879zm4.5-3c0 1.193-.474 2.338-1.318 3.182C14.338 11.526 13.193 12 12 12c-1.194 0-2.338-.474-3.182-1.318C7.974 9.838 7.5 8.693 7.5 7.5c0-1.193.474-2.338 1.318-3.182C9.662 3.474 10.807 3 12 3c1.194 0 2.338.474 3.182 1.318.844.844 1.318 1.989 1.318 3.182z" clip-rule="evenodd"/>
</svg>
