<svg xmlns="http://www.w3.org/2000/svg" width="24" height="24" fill="none" viewBox="0 0 24 24">
    <path fill="#fff" d="M0 0H24V24H0z"/>
    <path fill="#495057" d="M22.982 11.364c-.006-.065-.024-.128-.052-.186-.006-.012 0-.025-.01-.036l-1.873-3.07c-.148-.242-.357-.442-.607-.582-.25-.14-.532-.213-.82-.214h-3.793v-.56c0-.72-.292-1.41-.81-1.92-.517-.509-1.218-.795-1.95-.796H3.76c-.732 0-1.434.288-1.952.798-.517.51-.808 1.2-.808 1.921v10.697c0 .073.015.146.043.214.029.068.07.13.124.181.052.052.115.094.184.122.07.028.143.042.218.042h1.766c.129.574.453 1.088.92 1.456C4.72 19.8 5.3 20 5.896 20c.598 0 1.178-.2 1.643-.569.466-.368.79-.882.92-1.456h7.822c.13.573.454 1.085.92 1.451.465.367 1.044.567 1.64.567.596 0 1.174-.2 1.64-.567.465-.366.79-.878.92-1.45h1.029c.075 0 .149-.015.218-.043.069-.028.131-.07.184-.122.053-.052.095-.113.124-.181.028-.068.043-.141.043-.214v-5.973c-.004-.027-.01-.053-.018-.079zM7.388 17.421c-.002.38-.157.742-.43 1.01-.274.267-.644.416-1.03.415-.385 0-.754-.152-1.027-.42-.272-.27-.425-.633-.425-1.012 0-.38.153-.744.425-1.012.273-.269.642-.42 1.027-.42.386-.002.756.148 1.03.415.273.267.428.63.43 1.01v.014zm7.301-9.585v9.02H8.462c-.128-.576-.453-1.09-.92-1.46-.466-.369-1.046-.57-1.645-.57-.598 0-1.179.201-1.645.57-.467.37-.79.884-.92 1.46H2.139V6.718c0-.423.171-.828.475-1.127.304-.3.717-.468 1.146-.468h9.312c.43 0 .842.168 1.146.468.304.299.475.704.475 1.127l-.003 1.117zm1.138.56h3.793c.091 0 .18.023.26.067.079.045.145.108.192.185l1.354 2.223H15.83l-.004-2.475zM18.84 18.88c-.394-.002-.772-.157-1.05-.431-.279-.275-.435-.647-.436-1.034 0-.29.088-.574.252-.815s.396-.43.669-.54c.272-.111.572-.14.861-.083.29.056.555.196.763.401.208.206.35.467.408.752.057.284.028.579-.085.847s-.304.497-.55.658c-.244.161-.533.248-.827.248l-.005-.003zm3.022-2.026h-.447c-.129-.575-.454-1.089-.92-1.458-.467-.368-1.048-.57-1.646-.57-.599 0-1.18.202-1.646.57-.466.369-.791.883-.92 1.458h-.452v-4.86h6.031v4.86zm-10.176-9.08c.053.053.095.115.124.183.028.068.043.14.043.214 0 .074-.015.147-.043.215-.029.067-.071.13-.124.181l-4.129 4.064c-.053.052-.115.093-.184.121-.07.028-.143.043-.218.043-.075 0-.149-.015-.218-.043-.07-.028-.132-.07-.185-.121L5.188 11.09c-.053-.052-.095-.114-.124-.182-.028-.068-.043-.14-.043-.214 0-.074.015-.147.043-.215.029-.068.07-.13.124-.181.052-.053.115-.094.184-.122.07-.028.143-.043.218-.043.075 0 .149.015.218.043.069.028.132.07.185.122l1.162 1.144 3.727-3.668c.107-.105.252-.163.402-.163.151 0 .296.059.402.164z"/>
</svg>
