<svg xmlns="http://www.w3.org/2000/svg" width="24" height="24" fill="none" viewBox="0 0 24 24">
    <g fill="#495057" clip-path="url(#clip0)">
        <path fill-rule="evenodd" d="M12 22.5c2.785 0 5.456-1.106 7.425-3.075 1.969-1.97 3.075-4.64 3.075-7.425s-1.106-5.455-3.075-7.425C17.455 2.606 14.785 1.5 12 1.5S6.545 2.606 4.575 4.575C2.606 6.545 1.5 9.215 1.5 12s1.106 5.456 3.075 7.425C6.545 21.394 9.215 22.5 12 22.5zm0 1.5c3.183 0 6.235-1.264 8.485-3.515C22.735 18.235 24 15.183 24 12s-1.264-6.235-3.515-8.485C18.235 1.265 15.183 0 12 0S5.765 1.264 3.515 3.515C1.265 5.765 0 8.817 0 12s1.264 6.235 3.515 8.485C5.765 22.735 8.817 24 12 24z" clip-rule="evenodd"/>
        <path d="M13.395 9.882l-3.435.43-.123.57.675.125c.441.105.528.264.432.704l-1.107 5.202c-.291 1.345.158 1.978 1.212 1.978.818 0 1.767-.378 2.198-.897l.132-.624c-.3.264-.738.369-1.03.369-.412 0-.562-.29-.455-.8l1.501-7.057zM12 8.25c.828 0 1.5-.672 1.5-1.5s-.672-1.5-1.5-1.5-1.5.672-1.5 1.5.672 1.5 1.5 1.5z"/>
    </g>
    <defs>
        <clipPath id="clip0">
            <path fill="#fff" d="M0 0H24V24H0z"/>
        </clipPath>
    </defs>
</svg>
