<svg xmlns="http://www.w3.org/2000/svg" width="24" height="24" fill="none" viewBox="0 0 24 24">
    <path fill="#495057" fill-rule="evenodd" d="M19.5 13.5h-15V12h15v1.5zm0 4.5h-15v-1.5h15V18z" clip-rule="evenodd"/>
    <path fill="#495057" fill-rule="evenodd" d="M7.5 21v-7.5H9V21H7.5z" clip-rule="evenodd"/>
    <path fill="#495057" d="M6 1.5h7.5V3H6c-.398 0-.78.158-1.06.44-.282.28-.44.662-.44 1.06v15c0 .398.158.78.44 1.06.28.282.662.44 1.06.44h12c.398 0 .78-.158 1.06-.44.282-.28.44-.662.44-1.06V9H21v10.5c0 .796-.316 1.559-.879 2.121-.562.563-1.325.879-2.121.879H6c-.796 0-1.559-.316-2.121-.879C3.316 21.06 3 20.296 3 19.5v-15c0-.796.316-1.559.879-2.121C4.44 1.816 5.204 1.5 6 1.5z"/>
    <path fill="#495057" d="M13.5 6.75V1.5L21 9h-5.25c-.597 0-1.169-.237-1.591-.659-.422-.422-.659-.994-.659-1.591z"/>
</svg>
