<svg xmlns="http://www.w3.org/2000/svg" width="24" height="24" fill="none" viewBox="0 0 24 24">
    <path fill="#495057" fill-rule="evenodd" d="M2.25 4.5c-.199 0-.39.079-.53.22-.141.14-.22.331-.22.53v3H9c.199 0 .39.079.53.22.141.14.22.331.22.53 0 .38.12.966.459 1.437.31.432.835.813 1.791.813s1.48-.381 1.791-.813c.339-.471.459-1.057.459-1.437 0-.199.079-.39.22-.53.14-.141.331-.22.53-.22h7.5v-3c0-.199-.079-.39-.22-.53-.14-.141-.331-.22-.53-.22H2.25zM22.5 9.75h-6.826c-.108.562-.335 1.095-.665 1.563-.59.819-1.565 1.437-3.009 1.437s-2.42-.618-3.009-1.437c-.33-.468-.557-1-.665-1.563H1.5v9c0 .199.079.39.22.53.14.141.331.22.53.22h19.5c.199 0 .39-.079.53-.22.141-.14.22-.331.22-.53v-9zM0 5.25c0-.597.237-1.169.659-1.591C1.081 3.237 1.653 3 2.25 3h19.5c.597 0 1.169.237 1.591.659.422.422.659.994.659 1.591v13.5c0 .597-.237 1.169-.659 1.591-.422.422-.994.659-1.591.659H2.25c-.597 0-1.169-.237-1.591-.659C.237 19.919 0 19.347 0 18.75V5.25z" clip-rule="evenodd"/>
</svg>
